<svg xmlns="http://www.w3.org/2000/svg" width="26" height="26" viewBox="0 0 64 64"><title>Dusk Part 1</title><path d="M46.2,7.92h9.63a4,4,0,0,1,4,4V17.1a0,0,0,0,1,0,0H42.2a0,0,0,0,1,0,0V11.92a4,4,0,0,1,4-4Z" transform="translate(23.79 -32.41) rotate(45)" style="fill:#ed7899"/><rect width="22.63" height="9.36" x="32.5" y="15.51" transform="translate(27.11 -25.07) rotate(45)" style="fill:#c2cde7"/><rect width="18.38" height="40.48" x="17.12" y="17.45" transform="translate(34.36 -7.57) rotate(45)" style="fill:#f9e3ae"/><rect width="6.36" height="40.48" x="27.38" y="21.7" transform="translate(38.61 -9.33) rotate(45)" style="fill:#f6d397"/><polygon points="5 57 6 46 13 47 14 50 16.92 51.5 19 59 7 59 5 57" style="fill:#faefde"/><rect width="6.36" height="40.48" x="18.88" y="13.2" transform="translate(30.11 -5.81) rotate(45)" style="fill:#faefde"/><path d="M60.59,15.9a4,4,0,0,0-1.17-2.83L50.93,4.59a4.09,4.09,0,0,0-5.66,0L41,8.83a2,2,0,0,0-2.83,0l-5.66,5.66a2,2,0,0,0,0,2.83l.05.05L5.52,44.4a3,3,0,0,0-.87,1.88L4,54.68l-.7,4.92a1,1,0,0,0,1,1.14H4.4L9.32,60l8.45-.62a3,3,0,0,0,1.9-.87l27.08-27a2,2,0,0,0,2.77,0l5.66-5.66a2,2,0,0,0,0-2.83l4.24-4.24A4,4,0,0,0,60.59,15.9Zm-48.69,32,.58,2.88a1,1,0,0,0,.78.78l2.88.58,1.07,5.34L9.59,58,6,54.41l.61-7.6ZM19,56.35l-1-4.77L34.67,35a1,1,0,0,0-1.41-1.41L16.66,50.17,14.3,49.7l-.47-2.36L27.59,33.58a1,1,0,0,0-1.41-1.41L12.42,45.93,7.75,45,34,18.78,45.32,30.09ZM52.34,25.8h0a1,1,0,0,0-1.41,0l-1.41,1.41a1,1,0,0,0,0,1.41h0L48.1,30h0L34,15.9l1.41-1.41a1,1,0,0,0,1.41,0l1.41-1.41a1,1,0,0,0,0-1.41l1.41-1.41.71.71L53.05,23.68l.71.71ZM58,17.31l-4.24,4.24L42.44,10.24,46.69,6a2,2,0,0,1,2.83,0L58,14.49a2,2,0,0,1,0,2.83Z" style="fill:#8d6c9f"/><path d="M40.32,15.19l-1.41,1.41A1,1,0,1,0,40.32,18l1.41-1.41a1,1,0,0,0-1.41-1.41Z" style="fill:#8d6c9f"/><path d="M43.86,18.73l-1.41,1.41a1,1,0,1,0,1.41,1.41l1.41-1.41a1,1,0,0,0-1.41-1.41Z" style="fill:#8d6c9f"/><path d="M47.39,22.26,46,23.68a1,1,0,1,0,1.41,1.41l1.41-1.41a1,1,0,0,0-1.41-1.41Z" style="fill:#8d6c9f"/><path d="M31.84,26.51,29,29.33a1,1,0,1,0,1.41,1.41l2.83-2.83a1,1,0,0,0-1.41-1.41Z" style="fill:#8d6c9f"/></svg>