<?xml version="1.0" ?><svg id="OBJECT" viewBox="0 0 512 512" xmlns="http://www.w3.org/2000/svg"><defs><style>.cls-1{fill:#bddbff;}.cls-2{fill:#3d9ae2;}.cls-3{fill:#fff;}</style></defs><title/><path class="cls-1" d="M7.5,47.5v417a40,40,0,0,0,40,40h417a40,40,0,0,0,40-40V143.06A40,40,0,0,0,494,116l-87.6-95.56a40,40,0,0,0-29.49-13H47.5A40,40,0,0,0,7.5,47.5Z"/><path class="cls-2" d="M464.5,512H47.5A47.56,47.56,0,0,1,0,464.5V47.5A47.56,47.56,0,0,1,47.5,0H376.9a47.63,47.63,0,0,1,35,15.4L499.52,111A47.4,47.4,0,0,1,512,143.06V464.5A47.56,47.56,0,0,1,464.5,512ZM47.5,15A32.54,32.54,0,0,0,15,47.5v417A32.54,32.54,0,0,0,47.5,497h417A32.54,32.54,0,0,0,497,464.5V143.06a32.42,32.42,0,0,0-8.54-22l-87.6-95.56A32.57,32.57,0,0,0,376.9,15Z"/><path class="cls-3" d="M136,284.5H376a40,40,0,0,1,40,40v180a0,0,0,0,1,0,0H96a0,0,0,0,1,0,0v-180A40,40,0,0,1,136,284.5Z"/><path class="cls-2" d="M416,512H96a7.5,7.5,0,0,1-7.5-7.5v-180A47.56,47.56,0,0,1,136,277H376a47.56,47.56,0,0,1,47.5,47.5v180A7.5,7.5,0,0,1,416,512ZM103.5,497h305V324.5A32.54,32.54,0,0,0,376,292H136a32.54,32.54,0,0,0-32.5,32.5Z"/><path class="cls-3" d="M156,7.5H356a0,0,0,0,1,0,0v120a20,20,0,0,1-20,20H176a20,20,0,0,1-20-20V7.5A0,0,0,0,1,156,7.5Z"/><path class="cls-2" d="M336,155H176a27.54,27.54,0,0,1-27.5-27.5V7.5A7.5,7.5,0,0,1,156,0H356a7.5,7.5,0,0,1,7.5,7.5v120A27.54,27.54,0,0,1,336,155ZM163.5,15V127.5A12.52,12.52,0,0,0,176,140H336a12.52,12.52,0,0,0,12.5-12.5V15Z"/><path class="cls-2" d="M346,332H166a7.5,7.5,0,0,1,0-15H346a7.5,7.5,0,0,1,0,15Z"/><path class="cls-2" d="M346,402H166a7.5,7.5,0,0,1,0-15H346a7.5,7.5,0,0,1,0,15Z"/><path class="cls-2" d="M346,472H166a7.5,7.5,0,0,1,0-15H346a7.5,7.5,0,0,1,0,15Z"/><rect class="cls-1" height="80" rx="10" ry="10" width="50" x="276" y="37.5"/><path class="cls-2" d="M316,125H286a17.52,17.52,0,0,1-17.5-17.5v-60A17.52,17.52,0,0,1,286,30h30a17.52,17.52,0,0,1,17.5,17.5v60A17.52,17.52,0,0,1,316,125ZM286,45a2.5,2.5,0,0,0-2.5,2.5v60A2.5,2.5,0,0,0,286,110h30a2.5,2.5,0,0,0,2.5-2.5v-60A2.5,2.5,0,0,0,316,45Z"/></svg>