<?xml version="1.0"?><svg xmlns="http://www.w3.org/2000/svg"  viewBox="0 0 64 64" width="22px" height="22px"><title>Dusk Part 1</title><rect x="40.78" y="41.46" width="5.54" height="4" transform="translate(-17.98 43.52) rotate(-45)" style="fill:#dadcec;"/><rect x="48.8" y="41.79" width="8.49" height="22.51" rx="4" ry="4" transform="translate(-21.97 53.04) rotate(-45)" style="fill:#cda1a7;"/><rect x="49.42" y="43.29" width="4.24" height="22.51" rx="2.12" ry="2.12" transform="translate(-23.47 52.42) rotate(-45)" style="fill:#c4939c;"/><circle cx="25" cy="25" r="24" style="fill:#ffeb9b;"/><path d="M11.14,38.86,38.86,11.14a4,4,0,0,1,6.11.54A24,24,0,0,1,11.68,45,4,4,0,0,1,11.14,38.86Z" style="fill:#f6d397;"/><circle cx="25" cy="25" r="18" style="fill:#bbdef9;"/><circle cx="25" cy="25" r="7" style="fill:#d2edff;"/><circle cx="21" cy="21" r="4" style="fill:#f3f3f3;"/><circle cx="29.5" cy="29.5" r="1.5" style="fill:#f3f3f3;"/><path d="M38.44,11.57a19,19,0,1,0,0,26.87A18.88,18.88,0,0,0,38.44,11.57ZM37,37a17,17,0,1,1,0-24A16.89,16.89,0,0,1,37,37Z" style="fill:#8d6c9f;"/><path d="M31.2,14.72a12,12,0,0,1,2.28,1.79A1,1,0,1,0,34.9,15.1,14.08,14.08,0,0,0,32.23,13a1,1,0,0,0-1,1.71Z" style="fill:#8d6c9f;"/><path d="M26.38,11.07a14,14,0,0,0-11.27,4,1,1,0,1,0,1.41,1.41,12,12,0,0,1,9.67-3.46,1,1,0,1,0,.2-2Z" style="fill:#8d6c9f;"/><path d="M61.88,54.46,51.54,44.12a5,5,0,0,0-3.6-1.45c0-.14-2.77-2.91-2.77-2.91a25,25,0,1,0-5.41,5.41s2.78,2.72,2.91,2.77,0,0,0,.07a5,5,0,0,0,1.46,3.54L54.46,61.88a5,5,0,0,0,7.07,0l.34-.34a5,5,0,0,0,0-7.07ZM2,25A23,23,0,1,1,25,48,23,23,0,0,1,2,25ZM44.12,44.46a5,5,0,0,0-.92,1.32l-1.87-1.87a25.2,25.2,0,0,0,2.59-2.59l1.88,1.88a5,5,0,0,0-1.32.92ZM60.46,60.12l-.34.34a3,3,0,0,1-4.24,0L45.54,50.12a3,3,0,0,1,0-4.24l.34-.34a3,3,0,0,1,4.24,0L60.46,55.88a3,3,0,0,1,0,4.24Z" style="fill:#8d6c9f;"/><path d="M34.19,32.78a1,1,0,0,0-1.41,1.41l1.41,1.41a1,1,0,0,0,1.41-1.41Z" style="fill:#8d6c9f;"/><path d="M15.81,32.78l-1.41,1.41a1,1,0,1,0,1.41,1.41l1.41-1.41a1,1,0,0,0-1.41-1.41Z" style="fill:#8d6c9f;"/><path d="M39,24H37a1,1,0,0,0,0,2h2a1,1,0,0,0,0-2Z" style="fill:#8d6c9f;"/><path d="M14,25a1,1,0,0,0-1-1H11a1,1,0,0,0,0,2h2A1,1,0,0,0,14,25Z" style="fill:#8d6c9f;"/><path d="M25,36a1,1,0,0,0-1,1v2a1,1,0,0,0,2,0V37A1,1,0,0,0,25,36Z" style="fill:#8d6c9f;"/><path d="M38.28,29.55l-1.84-.78a1,1,0,1,0-.78,1.84l1.84.78a1,1,0,1,0,.78-1.84Z" style="fill:#8d6c9f;"/><path d="M20.7,35.13a1,1,0,0,0-1.31.53l-.78,1.84a1,1,0,1,0,1.84.78l.78-1.84A1,1,0,0,0,20.7,35.13Z" style="fill:#8d6c9f;"/><path d="M14.8,29.12a1,1,0,0,0-1.3-.55l-1.85.75a1,1,0,1,0,.75,1.85l1.85-.75A1,1,0,0,0,14.8,29.12Z" style="fill:#8d6c9f;"/><path d="M30.42,35.75a1,1,0,0,0-1.85.75l.75,1.85a1,1,0,0,0,1.85-.75Z" style="fill:#8d6c9f;"/></svg>