<svg width="512" height="512" xmlns="http://www.w3.org/2000/svg">

 <g>
  <title>Layer 1</title>
  <rect stroke="null" x="-1" y="1" id="svg_1" width="511.00001" rx="12.06" height="508.99999" fill="#a50064"/>
  <path stroke="null" id="svg_2" fill="#fff" d="m379.3542,57.08254c-48.42271,0 -87.67329,40.89593 -87.67329,91.29349s39.35306,91.29349 87.67329,91.29349s87.77577,-40.89593 87.77577,-91.29349s-39.25058,-91.29349 -87.77577,-91.29349zm0,130.24464a36.58605,39.6735 0 0 1 -37.25218,-38.89558a37.30342,40.45141 0 0 1 74.50436,0a36.58605,39.6735 0 0 1 -37.25218,38.89558zm-112.73012,-61.67728l0,114.40858l-50.62607,0l0,-114.96423a14.85988,16.11388 0 0 0 -29.71976,0l0,114.96423l-50.42111,0l0,-114.96423a14.85988,16.11388 0 0 0 -29.71976,0l0,114.96423l-50.26739,0l0,-114.40858a64.6661,70.12318 0 0 1 65.84464,-68.56736a67.17691,72.84587 0 0 1 39.45554,13.78015a67.33063,73.01257 0 0 1 39.4043,-13.78015a64.71734,70.17875 0 0 1 66.0496,68.56736zm112.73012,153.30416c-48.42271,0 -87.67329,40.84036 -87.67329,91.29349s39.35306,91.46019 87.67329,91.46019s87.67329,-40.84036 87.67329,-91.23793s-39.1481,-91.51575 -87.67329,-91.51575zm0,130.24464a35.86868,38.89558 0 1 1 37.25218,-38.89558a36.58605,39.6735 0 0 1 -37.25218,39.11784l0,-0.22226zm-112.73012,-61.45502l0,114.18632l-50.62607,0l0,-114.79754a14.85988,16.11388 0 0 0 -29.71976,0l0,114.79754l-50.42111,0l0,-114.79754a14.85988,16.11388 0 0 0 -29.71976,0l0,114.79754l-50.26739,0l0,-114.18632a64.61486,70.06762 0 0 1 65.84464,-68.78962a67.48435,73.17926 0 0 1 39.45554,13.72458a67.17691,72.84587 0 0 1 39.4043,-13.72458a64.6661,70.12318 0 0 1 66.0496,68.78962z"/>
 </g>
</svg>