<svg xmlns="http://www.w3.org/2000/svg" width="512" height="160"><g><title>Layer 1</title><g id="svg_7" stroke="null"><path id="svg_1" fill="#253b80" stroke="null" d="m192.42136,35.91486l-28.03347,0a3.89411,4.63315 0 0 0 -3.84902,3.91135l-11.338,85.5279a2.33646,2.77989 0 0 0 2.31187,3.20906l13.38343,0a3.89411,4.63315 0 0 0 3.84902,-3.91623l3.0579,-23.0682a3.89411,4.63315 0 0 1 3.84492,-3.91623l8.87446,0c18.46626,0 29.12382,-10.63185 31.90708,-31.70048c1.25431,-9.21753 0.05329,-16.45987 -3.57438,-21.53194c-3.98429,-5.56953 -11.05106,-8.51524 -20.43381,-8.51524zm3.23416,31.23717c-1.53305,11.96815 -9.21878,11.96815 -16.65038,11.96815l-4.23023,0l2.96772,-22.35128a2.33646,2.77989 0 0 1 2.30777,-2.34584l1.93886,0c5.06234,0 9.83774,0 12.30538,3.43341c1.47156,2.04834 1.92246,5.09159 1.36089,9.29556zm80.56292,-0.38528l-13.42442,0a2.33646,2.77989 0 0 0 -2.30777,2.34584l-0.59436,4.46733l-0.93868,-1.61916c-2.90623,-5.01843 -9.38685,-6.69612 -15.85516,-6.69612c-14.8345,0 -27.50469,13.36785 -29.97232,32.1199c-1.28301,9.35408 0.54108,18.29849 5.00085,24.53617c4.09086,5.73535 9.94432,8.12508 16.90862,8.12508c11.95286,0 18.58104,-9.14437 18.58104,-9.14437l-0.59846,4.43807a2.33646,2.77989 0 0 0 2.30367,3.21882l12.09223,0a3.89411,4.63315 0 0 0 3.84902,-3.91623l7.25534,-54.66626a2.32827,2.77013 0 0 0 -2.29957,-3.20906zm-18.71221,31.08598c-1.2953,9.12486 -7.38241,15.25037 -15.14602,15.25037c-3.89821,0 -7.01349,-1.48748 -9.01383,-4.30639c-1.98394,-2.7994 -2.73817,-6.7839 -2.10692,-11.22197c1.20922,-9.04683 7.3988,-15.3723 15.04355,-15.3723c3.81213,0 6.91101,1.50699 8.95235,4.35028c2.04543,2.87255 2.85704,6.88144 2.27088,11.3zm90.208,-31.08598l-13.49,0a3.9105,4.65266 0 0 0 -3.22596,2.03371l-18.60563,32.6076l-7.88659,-31.33471a3.9064,4.64778 0 0 0 -3.73834,-3.3066l-13.25636,0a2.33646,2.77989 0 0 0 -2.21759,3.67726l14.85909,51.8815l-13.96959,23.46323a2.33646,2.77989 0 0 0 1.90606,4.3893l13.47361,0a3.89001,4.62827 0 0 0 3.20137,-1.98981l44.86831,-77.05656a2.33646,2.77989 0 0 0 -1.91836,-4.36491z"/><path id="svg_2" fill="#179bd7" stroke="null" d="m392.37758,35.91486l-28.03757,0a3.89411,4.63315 0 0 0 -3.84492,3.91135l-11.338,85.5279a2.33236,2.77501 0 0 0 2.30367,3.20906l14.3877,0a2.72587,3.2432 0 0 0 2.68898,-2.74087l3.21776,-24.24355a3.89411,4.63315 0 0 1 3.84492,-3.91623l8.87036,0c18.47036,0 29.12382,-10.63185 31.91118,-31.70048c1.25841,-9.21753 0.04919,-16.45987 -3.57848,-21.53194c-3.98019,-5.56953 -11.04287,-8.51524 -20.42561,-8.51524zm3.23416,31.23717c-1.52895,11.96815 -9.21469,11.96815 -16.65038,11.96815l-4.22613,0l2.97182,-22.35128a2.32827,2.77013 0 0 1 2.30367,-2.34584l1.93886,0c5.05824,0 9.83774,0 12.30538,3.43341c1.47156,2.04834 1.91836,5.09159 1.35679,9.29556zm80.55882,-0.38528l-13.41622,0a2.32417,2.76526 0 0 0 -2.30367,2.34584l-0.59436,4.46733l-0.94278,-1.61916c-2.90623,-5.01843 -9.38275,-6.69612 -15.85106,-6.69612c-14.8345,0 -27.50059,13.36785 -29.96822,32.1199c-1.27891,9.35408 0.53698,18.29849 4.99675,24.53617c4.09906,5.73535 9.94432,8.12508 16.90862,8.12508c11.95286,0 18.58104,-9.14437 18.58104,-9.14437l-0.59846,4.43807a2.33646,2.77989 0 0 0 2.31187,3.21882l12.08813,0a3.89411,4.63315 0 0 0 3.84492,-3.91623l7.25943,-54.66626a2.34056,2.78477 0 0 0 -2.31597,-3.20906zm-18.71221,31.08598c-1.2871,9.12486 -7.38241,15.25037 -15.14602,15.25037c-3.89001,0 -7.01349,-1.48748 -9.01383,-4.30639c-1.98394,-2.7994 -2.72997,-6.7839 -2.10692,-11.22197c1.21742,-9.04683 7.3988,-15.3723 15.04355,-15.3723c3.81213,0 6.91101,1.50699 8.95235,4.35028c2.05363,2.87255 2.86524,6.88144 2.27088,11.3zm34.53868,-59.59203l-11.50606,87.09342a2.33236,2.77501 0 0 0 2.30367,3.20906l11.56755,0c1.92246,0 3.55388,-1.65818 3.84902,-3.91623l11.3462,-85.52303a2.33646,2.77989 0 0 0 -2.30367,-3.21394l-12.95303,0a2.34056,2.78477 0 0 0 -2.30367,2.35071z"/><path id="svg_3" fill="#253b80" stroke="null" d="m32.78348,145.18398l2.14381,-16.20139l-4.7754,-0.13168l-22.80307,0l15.84696,-119.54984a1.2953,1.54113 0 0 1 1.2871,-1.30704l38.44918,0c12.76447,0 21.57335,3.16029 26.1725,9.39797c2.15611,2.9262 3.52929,5.98408 4.19334,9.3492c0.69684,3.53095 0.70914,7.74955 0.02869,12.89478l-0.04919,0.37553l0,3.29685l2.15611,1.45335a15.12553,17.99612 0 0 1 4.3655,3.96012c1.84458,2.5019 3.0374,5.6817 3.54159,9.45162c0.52058,3.87721 0.34842,8.49085 -0.50418,13.71412c-0.98377,6.00846 -2.57421,11.24148 -4.72212,15.52348a26.83654,31.9297 0 0 1 -7.48078,9.75399c-2.85295,2.40924 -6.24287,4.23811 -10.07549,5.40859c-3.71375,1.15097 -7.94808,1.73133 -12.59231,1.73133l-2.99231,0c-2.13971,0 -4.21793,0.91688 -5.84936,2.56042a9.05892,10.77816 0 0 0 -3.0497,6.47665l-0.22545,1.45822l-3.78753,28.55482l-0.17216,1.04855c-0.04509,0.33164 -0.12297,0.49745 -0.23775,0.60962a0.63535,0.75593 0 0 1 -0.39351,0.17069l-18.47446,0z"/><path id="svg_4" fill="#179bd7" stroke="null" d="m97.47484,40.39194c-0.11477,0.87298 -0.24594,1.76547 -0.39351,2.68235c-5.07054,30.97381 -22.41776,41.67394 -44.57317,41.67394l-11.28061,0c-2.70948,0 -4.99265,2.34096 -5.41486,5.52076l-5.77557,43.58085l-1.63552,12.35343a2.88574,3.43341 0 0 0 2.84885,3.96988l20.00751,0c2.36926,0 4.38189,-2.04834 4.75491,-4.82823l0.19675,-1.2095l3.76704,-28.44265l0.24184,-1.56064c0.36892,-2.78964 2.38565,-4.83798 4.75491,-4.83798l2.99231,0c19.38445,0 34.55917,-9.36383 38.99435,-36.46043c1.85277,-11.31951 0.89359,-20.77113 -4.00888,-27.41848a19.13031,22.76095 0 0 0 -5.47634,-5.02331z"/><path id="svg_5" fill="#222d65" stroke="null" d="m92.17066,37.87541a39.99452,47.58486 0 0 0 -4.93117,-1.30216a62.65003,74.54003 0 0 0 -9.94432,-0.86323l-30.13629,0a4.8041,5.71584 0 0 0 -4.75081,4.83798l-6.41093,48.31154l-0.18446,1.40945a5.47634,6.51567 0 0 1 5.41486,-5.52076l11.28061,0c22.15542,0 39.50264,-10.70501 44.57317,-41.67394c0.15167,-0.91688 0.27874,-1.80937 0.39351,-2.68235a27.0292,32.15892 0 0 0 -4.16874,-2.09223a37.07599,44.11244 0 0 0 -1.13544,-0.4243z"/><path id="svg_6" fill="#253b80" stroke="null" d="m42.40808,40.548a4.7918,5.70121 0 0 1 4.75081,-4.8331l30.13629,0c3.57028,0 6.90282,0.27799 9.94432,0.86323a39.99452,47.58486 0 0 1 6.07071,1.72158c1.49616,0.59012 2.88574,1.28753 4.16874,2.09223c1.50845,-11.44631 -0.0123,-19.23975 -5.214,-26.29677c-5.73458,-7.76906 -16.08471,-11.09517 -29.32877,-11.09517l-38.44918,0c-2.70538,0 -5.01315,2.34096 -5.43125,5.52564l-16.01503,120.77884a3.30384,3.93086 0 0 0 3.25875,4.54536l23.73765,0l5.96003,-44.9903l6.41093,-48.31154z"/></g></g></svg>